# xmcd
#
# Track frame offsets: 
#        150
#        18019
#        42163
#        71697
#        90393
#        105159
#        126467
#
# Disc length: 2325 seconds
#
# Revision: 0
# Processed by: cddbd v1.5.2PL0 Copyright (c) Steve Scherf et al.
# Submitted via: ExactAudioCopy v0.95b4
#
DISCID=4c091307
DTITLE=Anyone's Daughter - In Blau
DYEAR=1982
DGENRE=A Cappella
TTITLE0=Sonnenzeichen - Feuerzeichen
TTITLE1=Für ein kleines Mädchen
TTITLE2=Nichts für mich
TTITLE3=Nach diesem Tag
TTITLE4=La la
TTITLE5=Sonne
TTITLE6=Tanz und Tod
EXTD=
EXTT0=
EXTT1=
EXTT2=
EXTT3=
EXTT4=
EXTT5=
EXTT6=
PLAYORDER=
